<svg width="512" height="512" viewBox="0 0 512 512" fill="none" xmlns="http://www.w3.org/2000/svg">
<rect width="512" height="512" rx="20" fill="#171717"/>
<path d="M127.12 211.364V179.545H253.541V211.364H209.791V325H170.87V211.364H127.12ZM268.402 325V179.545H331.186C341.982 179.545 351.428 181.676 359.525 185.938C367.621 190.199 373.918 196.188 378.417 203.906C382.915 211.624 385.164 220.644 385.164 230.966C385.164 241.383 382.844 250.402 378.203 258.026C373.611 265.649 367.148 271.52 358.814 275.639C350.528 279.759 340.846 281.818 329.766 281.818H292.266V251.136H321.811C326.452 251.136 330.405 250.331 333.672 248.722C336.987 247.064 339.52 244.721 341.272 241.69C343.071 238.66 343.971 235.085 343.971 230.966C343.971 226.799 343.071 223.248 341.272 220.312C339.52 217.33 336.987 215.057 333.672 213.494C330.405 211.884 326.452 211.08 321.811 211.08H307.891V325H268.402Z" fill="white"/>
</svg>
