<svg width="512" height="512" viewBox="0 0 512 512" fill="none" xmlns="http://www.w3.org/2000/svg">
<rect width="512" height="512" rx="20" fill="#171717"/>
<path d="M76.0685 198.909V154.364H253.057V198.909H191.807V358H137.319V198.909H76.0685ZM273.863 358V154.364H361.761C376.875 154.364 390.099 157.347 401.434 163.312C412.77 169.278 421.586 177.664 427.883 188.469C434.181 199.274 437.329 211.902 437.329 226.352C437.329 240.936 434.081 253.563 427.585 264.236C421.155 274.908 412.107 283.128 400.44 288.895C388.84 294.662 375.284 297.545 359.772 297.545H307.272V254.591H348.636C355.132 254.591 360.667 253.464 365.241 251.21C369.881 248.89 373.428 245.609 375.88 241.366C378.399 237.124 379.659 232.119 379.659 226.352C379.659 220.519 378.399 215.547 375.88 211.438C373.428 207.261 369.881 204.08 365.241 201.892C360.667 199.638 355.132 198.511 348.636 198.511H329.147V358H273.863Z" fill="white"/>
</svg>
